<?xml version="1.0" encoding="UTF-8" standalone="no"?>
<svg
   xmlns:dc="http://purl.org/dc/elements/1.1/"
   xmlns:cc="http://creativecommons.org/ns#"
   xmlns:rdf="http://www.w3.org/1999/02/22-rdf-syntax-ns#"
   xmlns:svg="http://www.w3.org/2000/svg"
   xmlns="http://www.w3.org/2000/svg"
   xmlns:sodipodi="http://sodipodi.sourceforge.net/DTD/sodipodi-0.dtd"
   xmlns:inkscape="http://www.inkscape.org/namespaces/inkscape"
   width="229.15489"
   version="1.1"
   height="87.390099"
   viewBox="0 0 183.32391 69.912079"
   id="svg3320"
   inkscape:version="0.48.4 r9939"
   sodipodi:docname="logo_Ingenio.svg">
  <metadata
     id="metadata3615">
    <rdf:RDF>
      <cc:Work
         rdf:about="">
        <dc:format>image/svg+xml</dc:format>
        <dc:type
           rdf:resource="http://purl.org/dc/dcmitype/StillImage" />
        <dc:title></dc:title>
      </cc:Work>
    </rdf:RDF>
  </metadata>
  <sodipodi:namedview
     pagecolor="#ffffff"
     bordercolor="#666666"
     borderopacity="1"
     objecttolerance="10"
     gridtolerance="10"
     guidetolerance="10"
     inkscape:pageopacity="0"
     inkscape:pageshadow="2"
     inkscape:window-width="1600"
     inkscape:window-height="838"
     id="namedview3613"
     showgrid="false"
     fit-margin-top="10"
     fit-margin-left="10"
     fit-margin-right="10"
     fit-margin-bottom="10"
     inkscape:zoom="1.5225071"
     inkscape:cx="81.099697"
     inkscape:cy="-78.682291"
     inkscape:window-x="0"
     inkscape:window-y="27"
     inkscape:window-maximized="1"
     inkscape:current-layer="svg3320" />
  <defs
     id="defs3322">
    <clipPath
       id="Clip0">
      <path
         d="m 0,0 0,350.531 175.392,0 L 175.392,0 0,0 z"
         transform="translate(0,0.46875)"
         id="path3325"
         inkscape:connector-curvature="0" />
    </clipPath>
  </defs>
  <g
     id="g3902"
     transform="translate(7.1289081,-1.24902)">
    <path
       inkscape:connector-curvature="0"
       id="path3329"
       d="m 2.45703,49.63572 0,-26.6914 4.74219,0 0,26.6914 -4.74219,0 z M 7.43359,15.3936 c -0.70312,0.6445 -1.58203,0.996 -2.57421,0.996 -0.9961,0 -1.875,-0.3515 -2.51954,-1.0546 -0.69921,-0.6446 -1.05078,-1.461 -1.05078,-2.4571 0,-0.9961 0.35157,-1.875 1.05078,-2.5742 0.70313,-0.70311 1.52344,-1.05468 2.51954,-1.05468 0.99218,0 1.87109,0.35157 2.57421,1.05468 0.70313,0.6992 1.05469,1.5781 1.05469,2.5742 0,0.9961 -0.35156,1.8711 -1.05469,2.5157 z"
       style="fill:#00a4b2;fill-rule:evenodd;stroke:none" />
    <path
       inkscape:connector-curvature="0"
       id="path3331"
       d="m 32.3623,49.6357 0,-14.9843 c 0,-2.2813 -0.7031,-4.1563 -2.1094,-5.6172 -1.4023,-1.4649 -3.2773,-2.168 -5.5586,-2.168 -2.2812,0 -4.1562,0.7031 -5.6211,2.1094 -1.4609,1.4609 -2.2226,3.3359 -2.2226,5.6758 l 0,14.9843 -4.7422,0 0,-14.9257 c 0,-3.6875 1.1133,-6.6719 3.3945,-8.8985 2.2852,-2.2226 5.2696,-3.3359 9.0742,-3.3359 3.8047,0 6.9063,1.1133 9.1915,3.3359 2.2812,2.2852 3.3945,5.211 3.3945,8.8985 l 0,14.9257 -4.8008,0 z"
       style="fill:#00a4b2;fill-rule:evenodd;stroke:none" />
    <path
       inkscape:connector-curvature="0"
       id="path3333"
       d="m 64.7129,57.7725 c -2.75,2.75 -6.3789,4.1562 -10.7695,4.1562 -1.3438,0 -2.6329,-0.0586 -3.7461,-0.2344 -1.1719,-0.1172 -2.2813,-0.3515 -3.336,-0.7617 l 0,-4.7422 c 0.9961,0.4102 2.0469,0.7617 3.1602,0.9375 1.1133,0.2344 2.2265,0.3516 3.3359,0.3516 3.2188,0 5.7969,-0.9375 7.7266,-2.8672 1.875,-1.875 2.8086,-4.2734 2.8086,-7.2578 l 0,-10.5391 c 0,-2.8672 -0.8164,-5.2656 -2.5156,-7.1406 -1.6954,-1.8125 -3.8633,-2.75 -6.4375,-2.75 -2.6915,0 -4.918,0.9375 -6.6133,2.8086 -1.6992,1.875 -2.5782,4.2148 -2.5782,7.082 0,2.5196 0.879,4.5664 2.6954,6.2071 1.7539,1.6953 3.9218,2.5156 6.5546,2.5156 1.1133,0 2.2813,-0.1758 3.5118,-0.4688 1.2304,-0.2929 2.2812,-0.7031 3.2187,-1.2265 l 0,4.914 c -2.164,0.8789 -4.4492,1.2891 -6.8476,1.2891 -4.1563,0 -7.6094,-1.2891 -10.2422,-3.8633 -2.6953,-2.5156 -4.0391,-5.6211 -4.0391,-9.3086 0,-3.9219 1.4609,-7.3164 4.4492,-10.3008 2.9844,-2.9843 6.2617,-4.4492 9.8321,-4.4492 3.9218,0 7.2578,1.3477 9.9492,4.0977 2.6953,2.7539 4.039,6.2656 4.039,10.5351 l 0,10.4805 c 0,4.2695 -1.4023,7.7852 -4.1562,10.5352 z"
       style="fill:#07213d;fill-rule:evenodd;stroke:none" />
    <path
       inkscape:connector-curvature="0"
       id="path3335"
       d="m 84.3047,42.2607 -2.8125,-3.2773 11.2969,-9.0156 c -1.5196,-2.0469 -3.6875,-3.043 -6.5547,-3.043 -2.2813,0 -4.3906,0.9961 -6.3203,3.043 -1.9336,2.0508 -2.9297,4.2734 -2.9297,6.5586 0,2.2226 0.9961,4.2695 2.9297,6.1445 1.9297,1.9297 4.039,2.8672 6.3203,2.8672 1.5234,0 2.9844,-0.4102 4.3906,-1.2305 1.3438,-0.7578 2.5742,-1.9297 3.6875,-3.3945 l 3.8633,2.4023 c -1.1133,2.0469 -2.6367,3.6875 -4.6836,4.7969 -2.0469,1.1719 -4.3906,1.7578 -6.9063,1.7578 -3.9804,0 -7.3164,-1.1719 -10.0078,-3.4531 -2.8711,-2.457 -4.2734,-5.7383 -4.2734,-9.8906 0,-3.5743 1.3437,-6.8516 4.0391,-9.7774 2.6328,-2.8672 5.9101,-4.332 9.7734,-4.332 2.8672,0 5.5039,0.7617 7.7851,2.2266 2.2813,1.4609 3.9805,3.5117 5.0352,6.0859 L 84.3047,42.2607 z"
       style="fill:#07213d;fill-rule:evenodd;stroke:none" />
    <path
       inkscape:connector-curvature="0"
       id="path3337"
       d="m 122.332,49.6357 0,-14.9843 c 0,-2.2813 -0.703,-4.1563 -2.109,-5.6172 -1.403,-1.4649 -3.278,-2.168 -5.559,-2.168 -2.281,0 -4.156,0.7031 -5.621,2.1094 -1.461,1.4609 -2.223,3.3359 -2.223,5.6758 l 0,14.9843 -4.742,0 0,-14.9257 c 0,-3.6875 1.113,-6.6719 3.395,-8.8985 2.285,-2.2226 5.269,-3.3359 9.074,-3.3359 3.805,0 6.906,1.1133 9.191,3.3359 2.282,2.2852 3.395,5.211 3.395,8.8985 l 0,14.9257 -4.801,0 z"
       style="fill:#07213d;fill-rule:evenodd;stroke:none" />
    <path
       inkscape:connector-curvature="0"
       id="path3339"
       d="m 131.97,49.63572 0,-26.6914 4.742,0 0,26.6914 -4.742,0 z m 4.976,-34.24212 c -0.703,0.6445 -1.582,0.996 -2.574,0.996 -0.996,0 -1.875,-0.3515 -2.519,-1.0546 -0.7,-0.6446 -1.051,-1.461 -1.051,-2.4571 0,-0.9961 0.351,-1.875 1.051,-2.5742 0.703,-0.70311 1.523,-1.05468 2.519,-1.05468 0.992,0 1.871,0.35157 2.574,1.05468 0.703,0.6992 1.055,1.5781 1.055,2.5742 0,0.9961 -0.352,1.8711 -1.055,2.5157 z"
       style="fill:#07213d;fill-rule:evenodd;stroke:none" />
    <path
       inkscape:connector-curvature="0"
       id="path3341"
       d="m 160.82,29.3232 c -1.812,-1.8125 -4.039,-2.75 -6.613,-2.75 -2.574,0 -4.801,0.9375 -6.613,2.75 -1.817,1.8164 -2.754,4.0391 -2.754,6.6172 0,2.5742 0.937,4.7969 2.754,6.6133 1.812,1.8125 4.039,2.75 6.613,2.75 2.574,0 4.801,-0.9375 6.613,-2.75 1.817,-1.8164 2.75,-4.0391 2.75,-6.6133 0,-2.5781 -0.933,-4.8008 -2.75,-6.6172 z m 3.278,16.6836 c -2.75,2.75 -6.028,4.0977 -9.891,4.0977 -3.863,0 -7.141,-1.3477 -9.891,-4.0977 -2.753,-2.75 -4.097,-6.0273 -4.097,-9.8906 0,-3.8633 1.344,-7.1406 4.097,-9.8945 2.75,-2.75 6.028,-4.0977 9.891,-4.0977 3.863,0 7.141,1.3477 9.891,4.0977 2.754,2.7539 4.097,6.0312 4.097,9.8945 0,3.8633 -1.343,7.1406 -4.097,9.8906 z"
       style="fill:#07213d;fill-rule:evenodd;stroke:none" />
    <path
       inkscape:connector-curvature="0"
       id="path3343"
       d="m 121.141,61.3721 c -0.239,0.1367 -1.055,0.6367 -2.02,0.6367 -1.766,0 -2.355,-1.5039 -2.355,-3.5703 0,-1.3555 0.277,-3.1602 1.793,-3.1602 1.129,0 1.277,0.7891 1.277,1.4688 l 1.629,0 c 0,-1.3438 -0.902,-2.5078 -2.906,-2.5078 -2.469,0 -3.411,1.8789 -3.411,4.4257 0,2.6914 1.118,4.4961 3.637,4.4961 1.039,0 1.942,-0.3242 2.356,-0.5 l 0,-1.289 z"
       style="fill:#07213d;fill-rule:evenodd;stroke:none" />
    <path
       inkscape:connector-curvature="0"
       id="path3345"
       d="m 127.106,54.4775 c -0.316,-0.0625 -1.156,-0.2382 -2.121,-0.2382 -1.629,0 -2.968,0.6914 -2.968,2.2304 0,2.4571 4.125,2.5703 4.125,4.4492 0,0.5625 -0.364,1.2032 -1.52,1.2032 -1.09,0 -1.93,-0.5274 -2.441,-0.8399 l 0,1.5157 c 0.261,0.0625 1.277,0.3632 2.394,0.3632 1.879,0 3.18,-0.8398 3.18,-2.457 0,-2.6055 -4.121,-2.832 -4.121,-4.3594 0,-0.7383 0.574,-1.0664 1.304,-1.0664 0.875,0 1.59,0.3281 2.168,0.5547 l 0,-1.3555 z"
       style="fill:#07213d;fill-rule:evenodd;stroke:none" />
    <path
       inkscape:connector-curvature="0"
       id="path3347"
       d="m 129.021,63.0244 1.464,0 0,-8.6484 -1.464,0 0,8.6484 z"
       style="fill:#07213d;fill-rule:evenodd;stroke:none" />
    <path
       inkscape:connector-curvature="0"
       id="path3349"
       d="m 137.947,61.3721 c -0.238,0.1367 -1.054,0.6367 -2.019,0.6367 -1.766,0 -2.356,-1.5039 -2.356,-3.5703 0,-1.3555 0.278,-3.1602 1.793,-3.1602 1.129,0 1.278,0.7891 1.278,1.4688 l 1.628,0 c 0,-1.3438 -0.902,-2.5078 -2.906,-2.5078 -2.469,0 -3.41,1.8789 -3.41,4.4257 0,2.6914 1.117,4.4961 3.637,4.4961 1.039,0 1.941,-0.3242 2.355,-0.5 l 0,-1.289 z"
       style="fill:#07213d;fill-rule:evenodd;stroke:none" />
    <path
       inkscape:connector-curvature="0"
       id="path3351"
       d="m 138.976,60.4697 4.66,0 0,-1.3554 -4.66,0 0,1.3554 z"
       style="fill:#07213d;fill-rule:evenodd;stroke:none" />
    <path
       inkscape:connector-curvature="0"
       id="path3353"
       d="m 151.059,54.376 -1.465,0 0,6.0039 c 0,0.9922 -0.387,1.7422 -1.528,1.7422 -1.152,0 -1.543,-0.75 -1.543,-1.7422 l 0,-6.0039 -1.464,0 0,6.0039 c 0,1.9062 1.226,2.7812 3.007,2.7812 1.852,0 2.993,-0.875 2.993,-2.7812 l 0,-6.0039 z"
       style="fill:#07213d;fill-rule:evenodd;stroke:none" />
    <path
       inkscape:connector-curvature="0"
       id="path3355"
       d="m 152.843,63.0244 1.469,0 0,-3.6836 0.761,0 c 1.203,0 3.035,-0.4023 3.035,-2.4687 0,-2.293 -1.691,-2.4961 -3.035,-2.4961 l -2.23,0 0,8.6484 z m 1.469,-7.6055 0.761,0 c 0.965,0 1.543,0.336 1.543,1.4532 0,0.9883 -0.664,1.4297 -1.543,1.4297 l -0.761,0 0,-2.8829 z"
       style="fill:#07213d;fill-rule:evenodd;stroke:none" />
    <path
       inkscape:connector-curvature="0"
       id="path3357"
       d="m 160.912,63.0244 1.766,0 2.968,-8.6484 -1.527,0 -2.293,6.957 -0.027,0 -2.254,-6.957 -1.531,0 2.898,8.6484 z"
       style="fill:#07213d;fill-rule:evenodd;stroke:none" />
    <path
       inkscape:connector-curvature="0"
       id="path3359"
       d="m 69.0938,60.8086 42.5262,0"
       style="fill:none;stroke:#00a4b2;stroke-width:1;stroke-linecap:butt;stroke-linejoin:miter;stroke-dasharray:none" />
    <path
       inkscape:connector-curvature="0"
       id="path3361"
       d="m 1.37109,60.8086 39.374,0"
       style="fill:none;stroke:#00a4b2;stroke-width:1;stroke-linecap:butt;stroke-linejoin:miter;stroke-dasharray:none" />
  </g>
</svg>
